<svg xmlns="http://www.w3.org/2000/svg" viewBox="0 0 1091.94 358.32"><defs><style>.cls-1{fill:none;stroke:#999;stroke-miterlimit:10;stroke-width:1.01px;}</style></defs><g id="Layer_2" data-name="Layer 2"><g id="Layer_1-2" data-name="Layer 1"><path class="cls-1" d="M.5,81.55c0-46.77,35-81,82.57-81,42.41,0,70.82,25.57,77.07,58.14H125.29C121.7,43.87,106,32.13,83.82,32.13,55.8,32.13,35,52.77,35,81.55,35,110.14,55.8,131,83.82,131c22.16,0,40.34-14.58,43-28.59h34.84c-4.73,31.06-35.79,60.22-78.58,60.22C35.54,162.6.5,128.32.5,81.55Z"/><path class="cls-1" d="M273.38,158.81l-29.92-48.67H216v48.67H181.54V4.48h62.11c39.2,0,62.11,20.83,62.11,52.83,0,21.21-10,37.5-28.21,46l35.79,55.48ZM216,79.66h26.13c18.18,0,29.17-7.77,29.17-22.35S260.31,35,242.13,35H216Z"/><path class="cls-1" d="M329.25,4.48H444V34.4H363.71V65.83h73.66V95.75H363.71v33.14h82v29.92H329.25Z"/><path class="cls-1" d="M563.3,128.89H503.46l-10.79,29.92h-35.6L516.91,4.48H552.7l59.83,154.33H574.09ZM552.7,99,533.38,45.19,514.07,99Z"/><path class="cls-1" d="M731.84,35H681.65V158.81H647.19V35H597V4.48H731.84Z"/><path class="cls-1" d="M784.86,4.48V158.81H750.4V4.48Z"/><path class="cls-1" d="M959.45,4.48l-61,154.33H861.36l-61-154.33h39l42,113.62L923.28,4.48Z"/><path class="cls-1" d="M975,4.48h114.75V34.4h-80.29V65.83h73.67V95.75h-73.67v33.14h82v29.92H975Z"/><path class="cls-1" d="M234.84,234H184.66V357.81H150.19V234H100V203.48H234.84Z"/><path class="cls-1" d="M345.24,357.81l-29.92-48.67H287.86v48.67H253.4V203.48h62.11c39.2,0,62.11,20.83,62.11,52.83,0,21.21-10,37.5-28.21,46l35.79,55.48Zm-57.38-79.15H314c18.17,0,29.16-7.77,29.16-22.35S332.17,234,314,234H287.86Z"/><path class="cls-1" d="M401.11,203.48H515.86V233.4H435.57v31.43h73.66v29.92H435.57v33.14h82v29.92H401.11Z"/><path class="cls-1" d="M540.67,203.48h28.78l77.07,92.79V201.59H681V355.92H652.2l-77.07-92.79v94.68H540.67Z"/><path class="cls-1" d="M708.26,203.48H768.1c51.13,0,82.75,31.62,82.75,77.26s-31.62,77.07-82.75,77.07H708.26Zm60.41,123.84c29.54,0,47.71-16.85,47.71-46.58S798.21,234,768.67,234H742.72v93.35Z"/><path class="cls-1" d="M939.29,309.33v48.48H904.82V309.33L847.07,203.48h39.38l37.12,72.91,36.92-72.91H997Z"/></g></g></svg>