<svg xmlns="http://www.w3.org/2000/svg" viewBox="0 0 1068.92 154.88"><defs><style>.cls-1{fill:none;stroke:#999;stroke-miterlimit:10;stroke-width:0.96px;}</style></defs><g id="Layer_2" data-name="Layer 2"><g id="Layer_1-2" data-name="Layer 1"><path class="cls-1" d="M.48,4.25H57.3c48.55,0,78.58,30,78.58,73.37s-30,73.18-78.58,73.18H.48Zm57.36,117.6c28.05,0,45.31-16,45.31-44.23S85.89,33.2,57.84,33.2H33.2v88.65Z"/><path class="cls-1" d="M155.48,4.25h109V32.66H188.21V62.51h69.94V90.92H188.21v31.47h77.85V150.8H155.48Z"/><path class="cls-1" d="M403.8,48.49H370C368,35.72,358.49,28,342.85,28c-15.29,0-23.74,6.11-23.74,14.92,0,11,11.33,14.75,39.92,20.68,33.8,7,45.31,23.74,45.31,45.67,0,28.05-26.43,45.14-59.16,45.14-36.14,0-62.57-19.6-64-50.89H314.8c1.79,14,14,23.38,32.72,23.38,13.31,0,23.2-6.66,23.2-16.19,0-11.69-9.89-16.36-36-21.22-31.82-5.93-49.08-19.06-49.08-46.57C285.67,16.48,311.92.66,345,.66,377.73.66,402.18,20.62,403.8,48.49Z"/><path class="cls-1" d="M456.31,4.25V150.8H423.59V4.25Z"/><path class="cls-1" d="M628.57,49.57h-36c-6.12-10.79-20-19.06-37.76-19.06-26.61,0-46.39,19.6-46.39,46.93,0,27.51,19.78,47.47,46.39,47.47,22.83,0,38.66-14,42.07-28.41H552.15V68.81h79.66v8.63c0,44.41-33.27,77-77.68,77-45.13,0-78.4-32.55-78.4-77s33.27-77,78.4-77C592.43.48,620.12,22.06,628.57,49.57Z"/><path class="cls-1" d="M651.23,4.25h27.33l73.18,88.11V2.46h32.73V149H757.14L684,60.9v89.9H651.23Z"/><path class="cls-1" d="M810.37,4.25h109V32.66H843.09V62.51H913V90.92H843.09v31.47H921V150.8H810.37Z"/><path class="cls-1" d="M1030.1,150.8l-28.41-46.21H975.62V150.8H942.89V4.25h59c37.22,0,59,19.78,59,50.17,0,20.14-9.53,35.6-26.8,43.7l34,52.68ZM975.62,75.64h24.81c17.26,0,27.69-7.37,27.69-21.22s-10.43-21.22-27.69-21.22H975.62Z"/></g></g></svg>